<svg width="48" height="58" viewBox="0 0 48 58" fill="none" xmlns="http://www.w3.org/2000/svg">
<path d="M24 0L30.9282 14.25H17.0718L24 0Z" fill="#D9D9D9"/>
<path d="M24 4L30.9282 18.25H17.0718L24 4Z" fill="white"/>
<g filter="url(#filter0_d_7_31)">
<circle cx="24" cy="30" r="20" fill="#F1F1F1"/>
</g>
<g filter="url(#filter1_f_7_31)">
<circle cx="24" cy="30" r="18" fill="#4E6EAD"/>
</g>
<circle cx="24" cy="30" r="17" fill="#FEFEFF" fill-opacity="0.84"/>
<g filter="url(#filter2_b_7_31)">
<circle cx="24" cy="30" r="16" fill="#1E2A43" fill-opacity="0.84"/>
</g>
<path d="M20.9432 28.0795C20.8485 27.7727 20.7178 27.4981 20.5511 27.2557C20.3883 27.0095 20.1913 26.7992 19.9602 26.625C19.733 26.4508 19.4716 26.3201 19.1761 26.233C18.8807 26.142 18.5587 26.0966 18.2102 26.0966C17.5852 26.0966 17.0284 26.2538 16.5398 26.5682C16.0511 26.8826 15.6667 27.3447 15.3864 27.9545C15.1098 28.5606 14.9716 29.2992 14.9716 30.1705C14.9716 31.0492 15.1098 31.7936 15.3864 32.4034C15.6629 33.0133 16.0473 33.4773 16.5398 33.7955C17.0322 34.1098 17.6042 34.267 18.2557 34.267C18.8466 34.267 19.358 34.1534 19.7898 33.9261C20.2254 33.6989 20.5606 33.3769 20.7955 32.9602C21.0303 32.5398 21.1477 32.0473 21.1477 31.483L21.625 31.5568H18.4659V29.9091H23.1875V31.3068C23.1875 32.303 22.9754 33.1648 22.5511 33.892C22.1269 34.6193 21.5436 35.1799 20.8011 35.5739C20.0587 35.964 19.2064 36.1591 18.2443 36.1591C17.1723 36.1591 16.2311 35.9186 15.4205 35.4375C14.6136 34.9527 13.983 34.2652 13.5284 33.375C13.0777 32.4811 12.8523 31.4205 12.8523 30.1932C12.8523 29.2538 12.9848 28.4148 13.25 27.6761C13.5189 26.9375 13.8939 26.3106 14.375 25.7955C14.8561 25.2765 15.4205 24.8826 16.0682 24.6136C16.7159 24.3409 17.4205 24.2045 18.1818 24.2045C18.8258 24.2045 19.4261 24.2992 19.983 24.4886C20.5398 24.6742 21.0341 24.9394 21.4659 25.2841C21.9015 25.6288 22.2595 26.0379 22.5398 26.5114C22.8201 26.9848 23.0038 27.5076 23.0909 28.0795H20.9432ZM35.6236 30.1818C35.6236 31.4356 35.3887 32.5095 34.919 33.4034C34.4531 34.2936 33.8168 34.9754 33.0099 35.4489C32.2069 35.9223 31.2959 36.1591 30.277 36.1591C29.258 36.1591 28.3452 35.9223 27.5384 35.4489C26.7353 34.9716 26.099 34.2879 25.6293 33.3977C25.1634 32.5038 24.9304 31.4318 24.9304 30.1818C24.9304 28.928 25.1634 27.8561 25.6293 26.9659C26.099 26.072 26.7353 25.3883 27.5384 24.9148C28.3452 24.4413 29.258 24.2045 30.277 24.2045C31.2959 24.2045 32.2069 24.4413 33.0099 24.9148C33.8168 25.3883 34.4531 26.072 34.919 26.9659C35.3887 27.8561 35.6236 28.928 35.6236 30.1818ZM33.5043 30.1818C33.5043 29.2992 33.366 28.5549 33.0895 27.9489C32.8168 27.339 32.438 26.8788 31.9531 26.5682C31.4683 26.2538 30.9096 26.0966 30.277 26.0966C29.6444 26.0966 29.0857 26.2538 28.6009 26.5682C28.116 26.8788 27.7353 27.339 27.4588 27.9489C27.1861 28.5549 27.0497 29.2992 27.0497 30.1818C27.0497 31.0644 27.1861 31.8106 27.4588 32.4205C27.7353 33.0265 28.116 33.4867 28.6009 33.8011C29.0857 34.1117 29.6444 34.267 30.277 34.267C30.9096 34.267 31.4683 34.1117 31.9531 33.8011C32.438 33.4867 32.8168 33.0265 33.0895 32.4205C33.366 31.8106 33.5043 31.0644 33.5043 30.1818Z" fill="white"/>
<defs>
<filter id="filter0_d_7_31" x="0" y="10" width="48" height="48" filterUnits="userSpaceOnUse" color-interpolation-filters="sRGB">
<feFlood flood-opacity="0" result="BackgroundImageFix"/>
<feColorMatrix in="SourceAlpha" type="matrix" values="0 0 0 0 0 0 0 0 0 0 0 0 0 0 0 0 0 0 127 0" result="hardAlpha"/>
<feOffset dy="4"/>
<feGaussianBlur stdDeviation="2"/>
<feComposite in2="hardAlpha" operator="out"/>
<feColorMatrix type="matrix" values="0 0 0 0 0 0 0 0 0 0 0 0 0 0 0 0 0 0 0.25 0"/>
<feBlend mode="normal" in2="BackgroundImageFix" result="effect1_dropShadow_7_31"/>
<feBlend mode="normal" in="SourceGraphic" in2="effect1_dropShadow_7_31" result="shape"/>
</filter>
<filter id="filter1_f_7_31" x="2" y="8" width="44" height="44" filterUnits="userSpaceOnUse" color-interpolation-filters="sRGB">
<feFlood flood-opacity="0" result="BackgroundImageFix"/>
<feBlend mode="normal" in="SourceGraphic" in2="BackgroundImageFix" result="shape"/>
<feGaussianBlur stdDeviation="2" result="effect1_foregroundBlur_7_31"/>
</filter>
<filter id="filter2_b_7_31" x="4" y="10" width="40" height="40" filterUnits="userSpaceOnUse" color-interpolation-filters="sRGB">
<feFlood flood-opacity="0" result="BackgroundImageFix"/>
<feGaussianBlur in="BackgroundImageFix" stdDeviation="2"/>
<feComposite in2="SourceAlpha" operator="in" result="effect1_backgroundBlur_7_31"/>
<feBlend mode="normal" in="SourceGraphic" in2="effect1_backgroundBlur_7_31" result="shape"/>
</filter>
</defs>
</svg>
